# xmcd
#
# Track frame offsets:
#   150
#   16381
#   30940
#   46609
#   63044
#   77631
#   93384
#   111980
#   126073
#   145473
#   161143
#   178296
#   194389
#   211657
#   229296
#
# Disc length: 3301 seconds
#
# Revision: 0
# Processed by: cddbd v1.5.2PL0 Copyright (c) Steve Scherf et al.
# Submitted via: uFREEDB ActiveX Control 1.5
#
DISCID=c40ce30f
DTITLE=Sampa Crew - Combinação Perfeita-CD1
DYEAR=1900
DGENRE=Blues
TTITLE0=Pare De Mentir
TTITLE1=Vida De Casal
TTITLE2=Distancia Pat De Auguem
TTITLE3=O Anjo E A Flor
TTITLE4=Mais Uma Chance
TTITLE5=Quem Sera Que Eu Amo
TTITLE6=Vem Que Vai Ser Bom
TTITLE7=alguem Vai Sofrer
TTITLE8=Voce Vai Apreder
TTITLE9=É Tudo Ilusão
TTITLE10=Se Eu Não Te Amase Assim
TTITLE11=Para Mim Valeu
TTITLE12=Homem Tambem Chora
TTITLE13=Combinação Perfeita
TTITLE14=No Mesmo Lugar
EXTD=
EXTT0=
EXTT1=
EXTT2=
EXTT3=
EXTT4=
EXTT5=
EXTT6=
EXTT7=
EXTT8=
EXTT9=
EXTT10=
EXTT11=
EXTT12=
EXTT13=
EXTT14=
PLAYORDER=
